<?xml version="1.0" encoding="UTF-8" standalone="no"?>
<!-- Created with Inkscape (http://www.inkscape.org/) -->

<svg
   width="124.34117mm"
   height="30.968735mm"
   viewBox="0 0 124.34117 30.968735"
   version="1.1"
   id="svg1"
   xmlns="http://www.w3.org/2000/svg"
   xmlns:svg="http://www.w3.org/2000/svg">
  <defs
     id="defs1" />
  <g
     id="layer1"
     transform="translate(-9.4029947,-260.10605)">
    <g
       id="g38"
       transform="translate(0.41341143,38.920621)"
       style="fill:#ffffff">
      <rect
         style="fill:#ffffff;fill-opacity:0.997727;stroke:#000000;stroke-width:1.6;stroke-linecap:round;stroke-linejoin:round;stroke-dasharray:none;stroke-dashoffset:0"
         id="rect33"
         width="28.884813"
         height="29.36875"
         x="9.7895832"
         y="221.98541"
         ry="7.4813509" />
      <path
         style="fill:#f27077;fill-opacity:0.997727;stroke:#f27077;stroke-width:0.334066;stroke-linecap:round;stroke-linejoin:round;stroke-dasharray:none;stroke-dashoffset:0"
         d="m 61.328866,948.66683 c -11.232183,-1.75108 -20.059248,-9.90287 -22.581876,-20.85435 -0.676696,-2.93774 -0.740001,-4.56787 -0.740001,-19.05551 v -14.03131 l 0.889054,-3.0788 c 3.890475,-13.47276 8.608723,-24.12056 11.6099,-26.20038 1.006519,-0.69752 1.478884,-0.63063 2.323624,0.32905 1.666899,1.89369 3.229717,7.28939 5.680033,19.61055 1.512074,7.60331 2.250677,10.6439 3.192983,13.14447 1.495204,3.9678 3.439093,6.28191 6.002891,7.14616 l 0.795495,0.26816 0.0449,21.49621 0.0449,21.49622 -2.873326,-0.0171 c -1.580329,-0.009 -3.555186,-0.12343 -4.388574,-0.25335 z"
         id="path33"
         transform="scale(0.26458333)" />
      <path
         style="fill:#77649e;fill-opacity:0.997727;stroke:#77649e;stroke-width:0.334066;stroke-linecap:round;stroke-linejoin:round;stroke-dasharray:none;stroke-dashoffset:0"
         d="m 70.710678,927.58273 v -21.35457 l 1.49822,-0.21662 c 3.252987,-0.47033 7.060118,-2.17686 13.881352,-6.22226 10.740311,-6.36964 17.01592,-8.66647 25.06596,-9.17396 8.50701,-0.5363 18.74417,1.72358 28.93932,6.38842 1.26395,0.57833 2.91461,1.33467 3.66812,1.68075 l 1.37002,0.62924 -0.003,12.03967 c -0.004,13.00516 -0.0723,14.25725 -0.95798,17.48456 -0.56877,2.0726 -0.9698,3.11089 -1.9732,5.10878 -1.39099,2.76962 -2.57676,4.41493 -4.92117,6.82835 -4.21665,4.34076 -9.40145,6.97027 -15.56712,7.895 -1.50607,0.22588 -5.41185,0.26528 -26.383917,0.26616 l -24.616155,10e-4 z"
         id="path34"
         transform="scale(0.26458333)" />
      <path
         style="fill:#d3c7db;fill-opacity:0.997727;stroke:#d3c7db;stroke-width:0.400879;stroke-linecap:round;stroke-linejoin:round;stroke-dasharray:none;stroke-dashoffset:0"
         d="m 70.710678,872.14783 v -31.93855 l 25.323261,0.0589 c 25.015331,0.0581 25.343681,0.0634 27.002641,0.43231 3.78978,0.84277 6.7788,2.07517 9.68461,3.99307 6.17021,4.07249 10.08588,9.8858 11.75136,17.44642 0.35793,1.62483 0.37207,2.21744 0.43552,18.24389 l 0.0656,16.56451 -2.04464,-0.96443 c -8.77341,-4.1383 -17.13112,-6.60173 -24.93058,-7.34826 -2.62706,-0.25146 -8.35451,-0.10448 -10.77599,0.27654 -5.23672,0.82399 -10.358746,2.57575 -15.630934,5.34586 -1.203686,0.63244 -4.027694,2.2332 -6.275572,3.55726 -6.996202,4.12093 -10.862088,5.87983 -13.53797,6.15952 l -1.067296,0.11155 z"
         id="path35"
         transform="scale(0.26458333)" />
      <path
         style="fill:#fac3be;fill-opacity:0.997727;stroke:#fac3be;stroke-width:0.400879;stroke-linecap:round;stroke-linejoin:round;stroke-dasharray:none;stroke-dashoffset:0"
         d="m 67.335564,903.17976 c -1.166735,-0.73992 -2.029241,-1.84243 -2.994937,-3.82833 -1.227041,-2.52333 -1.918533,-5.13574 -3.718996,-14.05012 -3.224358,-15.96431 -4.927343,-20.87216 -7.677011,-22.12446 -0.962069,-0.43816 -1.769916,-0.40765 -2.879101,0.10874 -3.144209,1.46379 -6.545629,7.78035 -10.663439,19.80239 l -1.210997,3.53553 0.0588,-11.22532 c 0.06351,-12.12282 0.06823,-12.19123 1.088939,-15.77259 1.995191,-7.00052 7.140926,-13.15334 13.782571,-16.47999 3.963441,-1.9852 7.042462,-2.71792 12.065009,-2.87115 l 3.402952,-0.10382 v 31.75591 c 0,25.99097 -0.04186,31.75591 -0.230556,31.75591 -0.126806,0 -0.587263,-0.22621 -1.023238,-0.5027 z"
         id="path36"
         transform="scale(0.26458333)" />
      <path
         style="fill:none;fill-opacity:0.997727;stroke:#000000;stroke-width:1;stroke-linecap:round;stroke-linejoin:round;stroke-dasharray:none;stroke-dashoffset:0"
         d="m 9.4972572,236.66978 c 0,0 3.4586328,-11.92952 5.1892028,-6.83136 1.73057,5.09817 1.049964,10.62084 4.911078,9.49476 4.152148,-1.21097 7.78085,-7.32854 19.076859,-1.54349"
         id="path38" />
      <path
         style="fill:#ffffff;fill-opacity:0.997727;stroke:#000000;stroke-width:1;stroke-linecap:round;stroke-linejoin:round;stroke-dasharray:none;stroke-dashoffset:0"
         d="m 18.428234,221.98541 v 29.36875 z"
         id="path37" />
      <text
         xml:space="preserve"
         style="font-size:25.4px;line-height:0.9;font-family:'Latin Modern Math';-inkscape-font-specification:'Latin Modern Math';text-align:end;letter-spacing:-0.148167px;word-spacing:0.00529167px;writing-mode:lr-tb;direction:ltr;text-anchor:end;fill:#ffffff;fill-opacity:0.997727;stroke:#ffffff;stroke-width:0.465;stroke-dasharray:none;stroke-dashoffset:0"
         x="40.113071"
         y="245.66139"
         id="text38"><tspan
           id="tspan38"
           style="font-style:normal;font-variant:normal;font-weight:bold;font-stretch:normal;font-size:25.4px;line-height:0.9;font-family:'Avenir Next';-inkscape-font-specification:'Avenir Next Bold';text-align:start;letter-spacing:-0.148167px;text-anchor:start;fill:#ffffff;stroke:#ffffff;stroke-width:0.465;stroke-dasharray:none"
           x="40.113071"
           y="245.66139">MxSure</tspan></text>
    </g>
  </g>
</svg>
